<svg width="48" height="48" viewBox="0 0 48 48" fill="none" xmlns="http://www.w3.org/2000/svg">
    <g clip-path="url(#clip0_967_4935)">
        <path
            d="M24 48C37.2548 48 48 37.2548 48 24C48 10.7452 37.2548 0 24 0C10.7452 0 0 10.7452 0 24C0 37.2548 10.7452 48 24 48Z"
            fill="white" />
        <path fill-rule="evenodd" clip-rule="evenodd"
            d="M24 48C37.2548 48 48 37.2548 48 24C48 10.7452 37.2548 0 24 0C10.7452 0 0 10.7452 0 24C0 37.2548 10.7452 48 24 48ZM14.9674 30.5923C15.624 30.799 16.3354 30.9024 17.1014 30.9024C18.8647 30.9024 20.2691 30.4951 21.3149 29.6803C22.3606 28.8535 23.0902 27.607 23.5037 25.9411C23.6253 25.4182 23.7408 24.8954 23.8502 24.3725C23.9719 23.8496 24.0752 23.3206 24.1603 22.7856C24.3062 21.9588 24.282 21.2352 24.0874 20.615C23.905 19.9949 23.5827 19.472 23.1206 19.0464C22.6707 18.6208 22.1174 18.3046 21.4608 18.0979C20.8164 17.879 20.111 17.7696 19.345 17.7696C17.5696 17.7696 16.159 18.1952 15.1133 19.0464C14.0676 19.8976 13.344 21.144 12.9427 22.7856C12.8211 23.3206 12.6996 23.8496 12.5779 24.3725C12.4685 24.8954 12.3651 25.4182 12.2678 25.9411C12.1341 26.768 12.1584 27.4915 12.3408 28.1117C12.5354 28.7318 12.8576 29.2486 13.3075 29.6621C13.7575 30.0756 14.3107 30.3856 14.9674 30.5923ZM19.0714 27.6922C18.5728 28.0812 17.9952 28.2758 17.3386 28.2758C16.6697 28.2758 16.1894 28.0812 15.8976 27.6922C15.6058 27.3031 15.5328 26.6829 15.6787 25.8317C15.776 25.2967 15.8733 24.792 15.9706 24.3178C16.08 23.8435 16.2016 23.351 16.3354 22.8403C16.542 21.9891 16.8886 21.3689 17.375 20.9798C17.8736 20.5908 18.4512 20.3962 19.1078 20.3962C19.7645 20.3962 20.2448 20.5908 20.5488 20.9798C20.8528 21.3689 20.9258 21.9891 20.7677 22.8403C20.6825 23.351 20.5853 23.8435 20.4758 24.3178C20.3786 24.792 20.263 25.2967 20.1293 25.8317C19.9226 26.6829 19.5699 27.3031 19.0714 27.6922ZM24.6148 30.5923C24.6877 30.6775 24.785 30.72 24.9066 30.72H27.3873C27.521 30.72 27.6365 30.6775 27.7338 30.5923C27.8433 30.5072 27.9101 30.3977 27.9345 30.264L28.7735 26.2694H31.2359C32.8045 26.2694 34.0509 25.9351 34.9751 25.2662C35.9114 24.5974 36.5316 23.5639 36.8356 22.1654C36.9815 21.4601 36.9754 20.8461 36.8173 20.3232C36.6592 19.7882 36.3796 19.3443 35.9783 18.9917C35.577 18.6391 35.0723 18.3776 34.4644 18.2074C33.8685 18.0372 33.1997 17.952 32.458 17.952H27.6061C27.4845 17.952 27.369 17.9945 27.2596 18.0797C27.1501 18.1648 27.0832 18.2743 27.0589 18.408L24.5418 30.264C24.5174 30.3977 24.5418 30.5072 24.6148 30.5923ZM31.3453 23.7523H29.2477L29.9591 20.4874H32.1479C32.5857 20.4874 32.9078 20.5603 33.1146 20.7062C33.3335 20.8522 33.4612 21.0468 33.4977 21.2899C33.5341 21.5331 33.5219 21.8128 33.4612 22.129C33.3396 22.6762 33.0781 23.0835 32.6769 23.351C32.2877 23.6186 31.8439 23.7523 31.3453 23.7523Z"
            fill="#FF0420" />
    </g>
    <defs>
        <clipPath id="clip0_967_4935">
            <rect width="48" height="48" fill="white" />
        </clipPath>
    </defs>
</svg>