<svg width="48" height="48" viewBox="0 0 48 48" fill="none" xmlns="http://www.w3.org/2000/svg">
    <mask id="mask0_15_420" style="mask-type:luminance" maskUnits="userSpaceOnUse" x="0" y="0"
        width="48" height="48">
        <path d="M48 0H0V48H48V0Z" fill="white" />
    </mask>
    <g mask="url(#mask0_15_420)">
        <path
            d="M13.1919 48.0004C25.5603 48.0004 25.5603 47.8167 27.6582 47.1973C30.3986 46.3873 19.9196 39.1636 13.1919 39.1636C6.46424 39.1636 1.00977 41.1422 1.00977 43.5824C1.00977 46.0225 6.46205 48.0004 13.1919 48.0004Z"
            fill="black" />
        <path
            d="M41.2775 10.4274L41.8465 11.0378L41.3499 11.7069C25.2182 33.427 15.9252 43.2607 11.9822 41.9425C9.58128 41.1386 7.17271 38.7228 4.76378 35.2144C3.91727 33.9809 3.12205 32.6822 2.39923 31.3905C1.91795 30.5298 1.51052 29.7451 1.2988 29.3032C1.07799 28.8715 0.918818 28.4112 0.825892 27.9357L0.814979 27.8806C0.778601 27.6868 0.76405 27.627 0.735676 27.5184C-0.371587 23.3632 -0.226271 18.9754 1.15351 14.902C2.53329 10.8285 5.08651 7.2495 8.49491 4.6111C11.9033 1.9727 16.0161 0.391602 20.3207 0.0648775C24.6253 -0.261847 28.9313 0.680258 32.7018 2.77376L32.7855 2.82593C35.4452 4.6705 38.2759 7.20408 41.2775 10.4274ZM31.6738 4.50278C28.2476 2.6144 24.3396 1.77025 20.4355 2.07525C16.5315 2.38025 12.8035 3.82095 9.71491 6.21831C6.62631 8.61566 4.31324 11.864 3.06317 15.5596C1.8131 19.2551 1.68114 23.235 2.6837 27.0047C2.72735 27.1684 2.74736 27.2604 2.79283 27.4977L2.80193 27.5466C2.86357 27.8572 2.97031 28.1571 3.11878 28.437C3.31194 28.8406 3.70082 29.5872 4.16064 30.4109C4.85581 31.6527 5.61938 32.9003 6.42806 34.0794C8.6049 37.2488 10.7625 39.4139 12.6239 40.0367C15.1074 40.8673 24.455 31.0137 39.2276 11.1841C36.9392 8.71231 34.4087 6.4741 31.6738 4.50278Z"
            fill="black" />
        <path
            d="M31.6741 4.5024C28.2478 2.61386 24.3397 1.7696 20.4356 2.07455C16.5314 2.3795 12.8033 3.82022 9.71465 6.21765C6.62596 8.61508 4.31285 11.8635 3.06282 15.5592C1.81278 19.2549 1.68092 23.235 2.68364 27.0047C2.72729 27.1684 2.7473 27.2604 2.79277 27.4977L2.80186 27.5466C2.86314 27.8576 2.96964 28.1581 3.11799 28.4385C3.31115 28.842 3.70003 29.5886 4.15984 30.4124C4.85502 31.6542 5.61859 32.9018 6.42726 34.0809C8.6041 37.2502 10.7617 39.4154 12.6231 40.0381C15.1081 40.8698 24.4546 31.0166 39.2279 11.1856C36.9396 8.7131 34.4091 6.47429 31.6741 4.5024Z"
            fill="#EC1C79" />
        <path
            d="M26.0176 47.799C21.6697 47.799 17.4194 46.5151 13.8043 44.1097C10.1891 41.7042 7.37145 38.2853 5.70758 34.2852C4.0437 30.2851 3.60836 25.8835 4.45659 21.6371C5.30483 17.3906 7.39854 13.49 10.473 10.4284C13.5474 7.36691 17.4645 5.28198 21.7288 4.4373C25.9932 3.59263 30.4133 4.02615 34.4303 5.68304C38.4472 7.33993 41.8806 10.1458 44.2961 13.7458C46.7117 17.3457 48.001 21.5782 48.001 25.9078C48.001 28.7826 47.4325 31.6293 46.3277 34.2853C45.223 36.9412 43.6037 39.3545 41.5623 41.3873C39.521 43.4201 37.0975 45.0326 34.4303 46.1327C31.7632 47.2328 28.9045 47.799 26.0176 47.799ZM26.0176 45.7907C29.9665 45.7906 33.8268 44.6244 37.1102 42.4397C40.3935 40.2549 42.9526 37.1497 44.4638 33.5166C45.9749 29.8836 46.3702 25.8859 45.5998 22.0291C44.8294 18.1723 42.9277 14.6296 40.1354 11.849C37.343 9.06845 33.7854 7.17486 29.9123 6.40772C26.0393 5.64058 22.0247 6.03434 18.3764 7.53921C14.7281 9.04408 11.6098 11.5925 9.41587 14.8621C7.22196 18.1318 6.05097 21.9758 6.05097 25.9082C6.05107 31.1813 8.15468 36.2385 11.8991 39.9671C15.6434 43.6958 20.7222 45.7906 26.0176 45.7907Z"
            fill="black" />
        <path
            d="M26.018 45.791C29.967 45.791 33.8272 44.625 37.1106 42.4403C40.3941 40.2556 42.9532 37.1504 44.4644 33.5173C45.9756 29.8843 46.371 25.8866 45.6007 22.0298C44.8303 18.173 42.9287 14.6303 40.1364 11.8496C37.3441 9.06901 33.7865 7.17536 29.9135 6.40815C26.0404 5.64094 22.0259 6.03463 18.3775 7.53943C14.7291 9.04423 11.6108 11.5926 9.41686 14.8622C7.22289 18.1318 6.05183 21.9758 6.05176 25.9082C6.05185 31.1813 8.15547 36.2385 11.8998 39.9671C15.6442 43.6958 20.7227 45.7909 26.018 45.791Z"
            fill="white" />
        <path fill-rule="evenodd" clip-rule="evenodd"
            d="M11.0823 29.9809L8.43945 22.052H10.7553L12.1332 26.6069L13.6571 22.0295H15.5426L17.0672 26.6069L18.4451 22.052H20.7158L18.073 29.9809H16.1646L14.5724 25.4488L12.9907 29.9809H11.0823ZM21.5856 29.9252V22.052H27.9444V23.9082H23.7548V25.1003H27.5494V26.8221H23.7548V28.0701H28.0005V29.9262L21.5856 29.9252ZM31.0511 29.9252V23.964H28.6796V22.052H35.6129V23.964H33.2414V29.9248L31.0511 29.9252ZM36.5736 29.9252V22.052H38.765V24.9982H41.577V22.052H43.7691V29.9248H41.577V26.9333H38.765V29.9248L36.5736 29.9252Z"
            fill="black" />
        <path
            d="M1.31103 19.6836C1.04306 19.5502 0.839278 19.3163 0.744518 19.0333C0.649758 18.7503 0.671782 18.4413 0.805744 18.1745C0.939706 17.9077 1.17463 17.7047 1.45884 17.6104C1.74305 17.516 2.05327 17.5379 2.32124 17.6713L5.54758 19.2786C5.68021 19.3446 5.7985 19.436 5.89568 19.5475C5.99285 19.6591 6.06702 19.7886 6.11394 19.9286C6.16086 20.0687 6.17961 20.2166 6.16913 20.3639C6.15866 20.5112 6.11915 20.655 6.05286 20.787C5.98658 20.9191 5.89482 21.0369 5.78282 21.1337C5.67083 21.2305 5.54079 21.3043 5.40013 21.351C5.25947 21.3978 5.11094 21.4164 4.96304 21.406C4.81513 21.3956 4.67073 21.3562 4.5381 21.2902L1.31103 19.6836Z"
            fill="black" />
        <path
            d="M0.939405 25.0123C0.80476 24.9505 0.683666 24.8628 0.583036 24.7544C0.482407 24.6459 0.404212 24.5188 0.352917 24.3803C0.301623 24.2417 0.278232 24.0945 0.284082 23.947C0.289932 23.7994 0.324907 23.6545 0.38701 23.5204C0.449114 23.3863 0.537129 23.2657 0.646032 23.1655C0.754934 23.0653 0.882591 22.9874 1.02171 22.9364C1.16084 22.8853 1.3087 22.862 1.45686 22.8678C1.60502 22.8736 1.75058 22.9085 1.88523 22.9703L5.11229 24.4526C5.38062 24.5798 5.5878 24.8072 5.68893 25.0855C5.79006 25.3637 5.777 25.6705 5.65257 25.9392C5.52814 26.2079 5.30237 26.417 5.02419 26.5211C4.74601 26.6252 4.43784 26.616 4.16647 26.4954L0.939405 25.0123Z"
            fill="black" />
    </g>
</svg>