<svg width="36" height="36" viewBox="0 0 36 36" fill="none" xmlns="http://www.w3.org/2000/svg">
    <rect width="36" height="36" rx="6" fill="#2C374B" />
    <rect width="36" height="36" rx="18" fill="#2C374B" />
    <path
        d="M21.2113 16.8085L23.3043 13.2569L28.9459 22.0437L28.9485 23.7301L28.9301 12.1262C28.9168 11.8424 28.7662 11.5829 28.5259 11.4298L18.369 5.5876C18.1315 5.4708 17.8301 5.4722 17.593 5.59128C17.5609 5.60741 17.5309 5.62477 17.5021 5.64389L17.4667 5.66616L7.60773 11.3793L7.5695 11.3968C7.52022 11.4193 7.47059 11.4482 7.42377 11.4815C7.23683 11.6155 7.11267 11.8138 7.07251 12.036C7.06655 12.0697 7.06199 12.1041 7.06006 12.1388L7.07549 21.5948L12.3304 13.4502C12.9919 12.3703 14.4334 12.0222 15.7716 12.0413L17.342 12.0827L8.08841 26.9228L9.1792 27.5508L18.5436 12.0978L22.6828 12.0827L13.3426 27.9257L17.2349 30.1646L17.6999 30.4319C17.8967 30.5119 18.1285 30.5159 18.3269 30.4442L28.6266 24.4754L26.6574 25.6165L21.2113 16.8085ZM22.0098 28.31L18.0786 22.1397L20.4785 18.0673L25.6415 26.2052L22.0098 28.31Z"
        fill="#2D374B" />
    <path d="M18.0776 22.1398L22.009 28.3099L25.6405 26.2053L20.4775 18.0674L18.0776 22.1398Z"
        fill="#28A0F0" />
    <path
        d="M28.9481 23.7304L28.9455 22.0441L23.3039 13.2573L21.2109 16.8089L26.6571 25.6169L28.6263 24.4757C28.8194 24.319 28.9364 24.0887 28.9487 23.8404L28.9481 23.7304Z"
        fill="#28A0F0" />
    <path
        d="M5.30762 25.3204L8.08842 26.9227L17.342 12.0826L15.7716 12.0413C14.4336 12.0223 12.992 12.3702 12.3304 13.4502L7.07549 21.5947L5.30762 24.311V25.3204Z"
        fill="white" />
    <path
        d="M22.6828 12.0828L18.5436 12.0978L9.1792 27.5509L12.4524 29.4354L13.3424 27.9258L22.6828 12.0828Z"
        fill="white" />
    <path
        d="M30.6927 12.0614C30.6582 11.1957 30.1894 10.4034 29.4553 9.94205L19.1653 4.02445C18.4391 3.65881 17.5319 3.65828 16.8043 4.02427C16.7184 4.06759 6.79754 9.82139 6.79754 9.82139C6.66022 9.88716 6.528 9.96554 6.40366 10.0546C5.74832 10.5244 5.34883 11.2543 5.30762 12.0561V24.3113L7.07549 21.595L7.06006 12.1389C7.06217 12.1043 7.06655 12.0701 7.07251 12.0366C7.1125 11.8141 7.23683 11.6158 7.42377 11.4816C7.4706 11.4483 17.5607 5.60749 17.5928 5.59136C17.8301 5.47228 18.1313 5.47088 18.3688 5.58767L28.5257 11.4299C28.766 11.583 28.9166 11.8425 28.9299 12.1262V23.8399C28.9177 24.0882 28.8195 24.3185 28.6264 24.4753L26.6572 25.6164L25.6411 26.2053L22.0096 28.3098L18.3267 30.4441C18.1284 30.5158 17.8964 30.5118 17.6998 30.4318L13.3424 27.9256L12.4523 29.4352L16.3682 31.6897C16.4976 31.7634 16.613 31.8286 16.7077 31.8819C16.8543 31.9642 16.9543 32.019 16.9895 32.0362C17.2678 32.1714 17.6682 32.25 18.0291 32.25C18.3598 32.25 18.6825 32.1893 18.9878 32.0697L29.6851 25.8749C30.299 25.3991 30.6603 24.6817 30.6927 23.9046V12.0614Z"
        fill="#96BEDC" />
</svg>