<svg width="36" height="36" viewBox="0 0 36 36" fill="none" xmlns="http://www.w3.org/2000/svg">
    <g clip-path="url(#clip0_9699_42542)">
        <rect width="36" height="36" rx="6" fill="#0052FF" />
        <path
            d="M18 36C27.9411 36 36 27.9411 36 18C36 8.05887 27.9411 0 18 0C8.05887 0 0 8.05887 0 18C0 27.9411 8.05887 36 18 36Z"
            fill="#0052FF" />
        <path
            d="M18.0794 30.5085C25.056 30.5085 30.7114 24.8626 30.7114 17.8982C30.7114 10.9338 25.056 5.28809 18.0794 5.28809C11.4604 5.28809 6.0305 10.3699 5.49121 16.8383H22.188V18.9582H5.49121C6.0305 25.4266 11.4604 30.5085 18.0794 30.5085Z"
            fill="white" />
    </g>
    <defs>
        <clipPath id="clip0_9699_42542">
            <rect width="36" height="36" rx="6" fill="white" />
        </clipPath>
    </defs>
</svg>