<svg width="36" height="36" viewBox="0 0 36 36" fill="none" xmlns="http://www.w3.org/2000/svg">
    <rect width="36" height="36" rx="6" fill="#F0B90B" />
    <path fill-rule="evenodd" clip-rule="evenodd"
        d="M18 0C27.9418 0 36 8.05817 36 18C36 27.9418 27.9418 36 18 36C8.05817 36 0 27.9418 0 18C0 8.05817 8.05817 0 18 0Z"
        fill="#F0B90B" />
    <path
        d="M24.4184 17.0136L24.4054 14.2271H24.4155L22.0487 12.8338L17.9929 15.2251L13.9616 12.8338L11.5963 14.2271V17.0136L15.652 19.3934V24.1646L18.0073 25.5448L20.3626 24.1646V19.3934L24.4184 17.0136Z"
        fill="white" />
    <path
        d="M17.9943 5.6958L11.5948 9.46888L13.9501 10.8621L17.9943 8.4708L22.0501 10.8621L24.4054 9.46888L17.9943 5.6958Z"
        fill="white" />
    <path
        d="M9.90587 22.7597L9.89289 18.0001L7.53904 16.6083V24.166L13.9501 27.9261V25.1396L9.90587 22.7597Z"
        fill="white" />
    <path
        d="M9.89289 16.0141V13.2405L12.2597 11.8472L9.89289 10.454L7.5376 11.8472V14.6208L9.89289 16.0141Z"
        fill="white" />
    <path d="M17.9943 10.454L15.639 11.8472L17.9943 13.2405L20.3612 11.8472L17.9943 10.454Z"
        fill="white" />
    <path d="M13.9501 20.3799L11.5948 18.9867V21.7732L13.9501 23.1535V20.3799Z" fill="white" />
    <path
        d="M17.9943 27.5309L15.639 26.1376V28.9112L17.9943 30.3045L20.3612 28.9112V26.1376L17.9943 27.5309Z"
        fill="white" />
    <path
        d="M26.0943 10.454L23.739 11.8472L26.0943 13.2405V16.0141L28.4612 14.6208V11.8472L26.0943 10.454Z"
        fill="white" />
    <path
        d="M28.4626 16.6069L26.1073 18.0001L26.0943 22.7597L22.0515 25.1381V27.9247L28.4626 24.1646V16.6069Z"
        fill="white" />
    <path d="M24.4054 21.7732L22.0501 23.1535V20.3799L24.4054 18.9867V21.7732Z" fill="white" />
</svg>