<svg width="36" height="36" viewBox="0 0 36 36" fill="none" xmlns="http://www.w3.org/2000/svg">
    <rect width="36" height="36" rx="6" fill="#FF0420" />
    <g clip-path="url(#clip0_8295_26684)">
        <path
            d="M18 36C27.9411 36 36 27.9411 36 18C36 8.05888 27.9411 0 18 0C8.05888 0 0 8.05888 0 18C0 27.9411 8.05888 36 18 36Z"
            fill="white" />
        <path fill-rule="evenodd" clip-rule="evenodd"
            d="M18 36C27.9411 36 36 27.9411 36 18C36 8.05889 27.9411 0 18 0C8.05889 0 0 8.05889 0 18C0 27.9411 8.05889 36 18 36ZM11.2255 22.9442C11.718 23.0993 12.2515 23.1768 12.8261 23.1768C14.1485 23.1768 15.2019 22.8713 15.9862 22.2602C16.7705 21.6401 17.3177 20.7053 17.6278 19.4558C17.719 19.0637 17.8056 18.6715 17.8877 18.2794C17.9789 17.8872 18.0564 17.4905 18.1202 17.0892C18.2297 16.4691 18.2115 15.9264 18.0655 15.4613C17.9287 14.9962 17.687 14.604 17.3405 14.2848C17.003 13.9656 16.5881 13.7285 16.0956 13.5734C15.6123 13.4093 15.0833 13.3272 14.5087 13.3272C13.1772 13.3272 12.1193 13.6464 11.335 14.2848C10.5507 14.9232 10.008 15.858 9.70704 17.0892C9.61582 17.4905 9.52466 17.8872 9.43344 18.2794C9.35136 18.6715 9.27382 19.0637 9.20088 19.4558C9.10058 20.076 9.1188 20.6186 9.2556 21.0838C9.40154 21.5489 9.64318 21.9365 9.98064 22.2466C10.3181 22.5567 10.733 22.7892 11.2255 22.9442ZM14.3035 20.7691C13.9296 21.0609 13.4964 21.2069 13.0039 21.2069C12.5023 21.2069 12.1421 21.0609 11.9232 20.7691C11.7043 20.4773 11.6496 20.0122 11.759 19.3738C11.832 18.9725 11.905 18.594 11.9779 18.2383C12.06 17.8826 12.1512 17.5133 12.2515 17.1302C12.4065 16.4918 12.6665 16.0267 13.0313 15.7349C13.4052 15.4431 13.8384 15.2971 14.3309 15.2971C14.8234 15.2971 15.1836 15.4431 15.4116 15.7349C15.6396 16.0267 15.6943 16.4918 15.5758 17.1302C15.5119 17.5133 15.439 17.8826 15.3569 18.2383C15.2839 18.594 15.1973 18.9725 15.097 19.3738C14.9419 20.0122 14.6774 20.4773 14.3035 20.7691ZM18.4611 22.9442C18.5158 23.0081 18.5887 23.04 18.68 23.04H20.5404C20.6407 23.04 20.7274 23.0081 20.8004 22.9442C20.8825 22.8804 20.9326 22.7983 20.9508 22.698L21.5801 19.7021H23.4269C24.6034 19.7021 25.5382 19.4513 26.2313 18.9497C26.9335 18.4481 27.3987 17.6729 27.6267 16.6241C27.7361 16.0951 27.7315 15.6346 27.613 15.2424C27.4944 14.8411 27.2847 14.5082 26.9837 14.2438C26.6828 13.9793 26.3043 13.7832 25.8483 13.6555C25.4014 13.5279 24.8998 13.464 24.3435 13.464H20.7046C20.6134 13.464 20.5268 13.4959 20.4447 13.5598C20.3626 13.6236 20.3124 13.7057 20.2942 13.806L18.4064 22.698C18.3881 22.7983 18.4064 22.8804 18.4611 22.9442ZM23.509 17.8142H21.9358L22.4693 15.3655H24.1109C24.4392 15.3655 24.6809 15.4202 24.836 15.5297C25.0001 15.6391 25.0959 15.7851 25.1232 15.9674C25.1506 16.1498 25.1415 16.3596 25.0959 16.5967C25.0047 17.0071 24.8086 17.3126 24.5076 17.5133C24.2158 17.7139 23.8829 17.8142 23.509 17.8142Z"
            fill="#FF0420" />
    </g>
    <defs>
        <clipPath id="clip0_8295_26684">
            <rect width="36" height="36" fill="white" />
        </clipPath>
    </defs>
</svg>