<svg width="36" height="36" viewBox="0 0 36 36" fill="none" xmlns="http://www.w3.org/2000/svg">
    <rect width="36" height="36" rx="6" fill="#8247E5" />
    <rect width="36" height="36" rx="18" fill="#8247E5" />
    <rect width="24" height="24" transform="translate(6 6)" fill="#8247E5" />
    <path
        d="M24.0796 13.957C23.6475 13.7101 23.092 13.7101 22.5983 13.957L19.1418 15.9938L16.7964 17.29L13.4017 19.3268C12.9696 19.5737 12.4141 19.5737 11.9203 19.3268L9.26628 17.722C8.83423 17.4752 8.52562 16.9814 8.52562 16.4259V13.3398C8.52562 12.846 8.77251 12.3522 9.26628 12.0436L11.9203 10.5006C12.3524 10.2537 12.9079 10.2537 13.4017 10.5006L16.0557 12.1053C16.4878 12.3522 16.7964 12.846 16.7964 13.4015V15.4383L19.1418 14.0804V11.9819C19.1418 11.4881 18.8949 10.9943 18.4012 10.6857L13.4634 7.78478C13.0313 7.53789 12.4758 7.53789 11.9821 7.78478L6.92084 10.7474C6.42706 10.9943 6.18018 11.4881 6.18018 11.9819V17.7838C6.18018 18.2775 6.42706 18.7713 6.92084 19.0799L11.9203 21.9809C12.3524 22.2278 12.9079 22.2278 13.4017 21.9809L16.7964 20.0058L19.1418 18.6479L22.5365 16.6728C22.9686 16.4259 23.5241 16.4259 24.0179 16.6728L26.6719 18.2158C27.104 18.4627 27.4126 18.9565 27.4126 19.512V22.5981C27.4126 23.0919 27.1657 23.5856 26.6719 23.8943L24.0796 25.4373C23.6475 25.6842 23.092 25.6842 22.5983 25.4373L19.9442 23.8943C19.5122 23.6474 19.2036 23.1536 19.2036 22.5981V20.623L16.8581 21.9809V24.0177C16.8581 24.5115 17.105 25.0053 17.5988 25.3139L22.5983 28.2148C23.0303 28.4617 23.5858 28.4617 24.0796 28.2148L29.0791 25.3139C29.5111 25.067 29.8198 24.5732 29.8198 24.0177V18.1541C29.8198 17.6603 29.5729 17.1665 29.0791 16.8579L24.0796 13.957Z"
        fill="white" />
</svg>