<svg width="48" height="48" viewBox="0 0 48 48" fill="none" xmlns="http://www.w3.org/2000/svg">
    <g clip-path="url(#clip0_44_3)">
        <path
            d="M0 0C15.84 0 31.68 0 48 0C48 15.84 48 31.68 48 48C32.16 48 16.32 48 0 48C0 32.16 0 16.32 0 0Z"
            fill="#1C2925" />
        <path
            d="M18 7.5C21.96 7.5 25.92 7.5 30 7.5C33.662 14.2021 37.135 20.9644 40.4531 27.8438C40.8164 28.5902 41.1798 29.3366 41.5541 30.1057C41.8936 30.8152 42.2332 31.5248 42.583 32.2559C43.0382 33.203 43.0382 33.203 43.5027 34.1693C44.2663 36.04 44.7344 37.7481 45 39.75C43.4345 41.3155 40.2564 40.7076 38.1093 40.7344C37.2588 40.767 37.2588 40.767 36.3911 40.8003C32.3449 40.8459 30.2447 40.0949 27 37.5C26.2053 36.9161 25.4105 36.3321 24.5918 35.7305C23.8087 35.1388 23.0255 34.5471 22.2187 33.9375C21.6053 33.4749 21.6053 33.4749 20.9795 33.0029C19.9855 32.2531 18.9926 31.5017 18 30.75C16.4532 32.7166 15.2319 34.6335 14.1562 36.8906C12.822 39.6779 12.822 39.6779 12 40.5C10.6103 40.5542 9.21871 40.5629 7.82809 40.5469C7.06915 40.5401 6.31021 40.5333 5.52828 40.5264C4.64801 40.5133 4.64801 40.5133 3.74996 40.5C3.16955 38.7952 2.90287 37.8143 3.44179 36.0698C3.68754 35.5875 3.93329 35.1053 4.18648 34.6084C4.45284 34.08 4.71919 33.5517 4.99361 33.0073C5.2793 32.4635 5.56499 31.9197 5.85934 31.3594C6.13632 30.8069 6.41331 30.2543 6.69869 29.6851C8.7892 25.6054 8.7892 25.6054 10.5 24.75C16.0256 23.7754 20.0945 24.2487 24.6877 27.4341C26.7582 28.9865 28.7678 30.5858 30.75 32.25C29.6536 28.9608 28.0797 25.8917 26.5796 22.771C24.75 18.9111 24.75 18.9111 24.75 17.25C24.255 17.25 23.76 17.25 23.25 17.25C22.755 18.4875 22.26 19.725 21.75 21C19.0275 21 16.305 21 13.5 21C12.6726 16.8632 13.3281 15.5216 15.3281 12.1406C16.2098 10.6092 17.0915 9.07781 18 7.5Z"
            fill="#D6FD50" />
    </g>
    <defs>
        <clipPath id="clip0_44_3">
            <rect width="48" height="48" fill="white" />
        </clipPath>
    </defs>
</svg>